# xmcd
#
# Track frame offsets: 
#        150
#        17760
#        35302
#        53250
#        66642
#        85862
#        104032
#        127350
#        146542
#        164922
#        181765
#        209507
#        224910
#        240610
#        260745
#
# Disc length: 3765 seconds
#
# Revision: 4
# Processed by: cddbd v1.5.2PL0 Copyright (c) Steve Scherf et al.
# Submitted via: ExactAudioCopyFreeDBPlugin 1.0
#
DISCID=f00eb30f
DTITLE=Will Smith - Willennium
DYEAR=1999
DGENRE=Hip-Hop
TTITLE0=I'm Comin' (feat. Tra-Knox)
TTITLE1=Will 2K (feat. K-Ci)
TTITLE2=Freakin' It
TTITLE3=Da Butta (feat. Lil' Kim)
TTITLE4=La Fiesta
TTITLE5=Who Am I (feat. Tatynna Ali and MC Lyte)
TTITLE6=Afro Angel
TTITLE7=So Fresh (feat. Biz Markie and Slick Rick)
TTITLE8=DJ Jazzy Jeff and The Fresh Prince - Pump Me Up
TTITLE9=Can You Feel Me? (feat. Eve)
TTITLE10=Potnas-Interlude
TTITLE11=No More (feat. Breeze)
TTITLE12=Uuhhh (feat. Kel Spencer)
TTITLE13=Wild Wild West (feat. Dru Hill and Kool Mo Dee)
TTITLE14=The Rain (feat. Jill Scott)
EXTD=YEAR: 1999
EXTT0=
EXTT1=
EXTT2=
EXTT3=
EXTT4=
EXTT5=
EXTT6=
EXTT7=
EXTT8=
EXTT9=
EXTT10=
EXTT11=
EXTT12=
EXTT13=
EXTT14=
PLAYORDER=
